# AST/ASF file generated using VICON BodyLanguage
# -----------------------------------------------
:version 1.10
:name VICON
:units
  mass 1.0
  length 0.45
  angle deg
:documentation
   .ast/.asf automatically generated from VICON data using
   VICON BodyBuilder and BodyLanguage model FoxedUp or BRILLIANT.MOD
:root
   order TX TY TZ RX RY RZ
   axis XYZ
   position 0 0 0  
   orientation 0 0 0 
:bonedata
  begin
     id 1 
     name lhipjoint
     direction 0.671379 -0.66392 0.329334 
     length 2.38647 
     axis 0 0 0  XYZ
  end
  begin
     id 2 
     name lfemur
     direction 0.34202 -0.939693 0  
     length 6.48179  
     axis 0 0 20  XYZ
    dof rx ry rz
    limits (-160.0 20.0)
           (-70.0 70.0)
           (-60.0 70.0)
  end
  begin
     id 3 
     name ltibia
     direction 0.34202 -0.939693 0   
     length 6.86524   
     axis 0 0 20   XYZ
    dof rx
    limits (-10.0 170.0)
  end
  begin
     id 4 
     name lfoot
     direction 0.204886 -0.562919 0.800715   
     length 1.73031   
     axis -90 7.62852e-016 20   XYZ
    dof rx rz
    limits (-45.0 90.0)
           (-70.0 20.0)
  end
  begin
     id 5 
     name ltoes
     direction 1.53548e-011 -4.21841e-011 1   
     length 0.828161   
     axis -90 7.62852e-016 20   XYZ
    dof rx
    limits (-90.0 20.0)
  end
  begin
     id 6 
     name rhipjoint
     direction -0.662732 -0.670855 0.332775   
     length 2.3618  
     axis 0 0 0  XYZ 
  end
  begin
     id 7 
     name rfemur
     direction -0.34202 -0.939693 0   
     length 6.3025   
     axis 0 0 -20   XYZ
    dof rx ry rz
    limits (-160.0 20.0)
           (-70.0 70.0)
           (-70.0 60.0)
  end
  begin
     id 8 
     name rtibia
     direction -0.34202 -0.939693 0   
     length 6.8732   
     axis 0 0 -20   XYZ
    dof rx
    limits (-10.0 170.0)
 end
 begin
     id 9 
     name rfoot
     direction -0.173856 -0.477665 0.861168   
     length 1.54784  
     axis -90 -7.62852e-016 -20   XYZ
    dof rx rz
    limits (-45.0 90.0)
           (-20.0 70.0)
  end
  begin
     id 10 
     name rtoes
     direction -1.53562e-011 -4.21802e-011 1   
     length 0.759618   
     axis -90 -7.62852e-016 -20   XYZ
    dof rx
    limits (-90.0 20.0)
  end
  begin
     id 11 
     name lowerback
     direction -0.0278357 0.999497 -0.0151789   
     length 1.97203   
     axis 0 0 0   XYZ
    dof rx ry rz
    limits (-20.0 45.0)
           (-30.0 30.0)
           (-30.0 30.0)
  end
  begin
     id 12 
     name upperback
     direction -0.00360622 0.997542 0.0699804   
     length 1.94709   
     axis 0 0 0   XYZ
    dof rx ry rz
    limits (-20.0 45.0)
           (-30.0 30.0)
           (-30.0 30.0)
  end
  begin
     id 13 
     name thorax
     direction 0.00907706 0.997048 0.0762461   
     length 1.95722   
     axis 0 0 0   XYZ
    dof rx ry rz
    limits (-20.0 45.0)
           (-30.0 30.0)
           (-30.0 30.0)
  end
  begin
     id 14 
     name lowerneck
     direction -0.0481835 0.99872 -0.0153927   
     length 1.63078   
     axis 0 0 0   XYZ
    dof rx ry rz
    limits (-20.0 45.0)
           (-30.0 30.0)
           (-30.0 30.0)
  end
  begin
     id 15 
     name upperneck
     direction 0.0859716 0.979226 -0.183644   
     length 1.62591   
     axis 0 0 0   XYZ
    dof rx ry rz
    limits (-20.0 45.0)
           (-30.0 30.0)
           (-30.0 30.0)
  end
  begin
     id 16
     name head
     direction 0.0324821 0.997629 -0.0606773  
     length 1.64811  
     axis 0 0 0   XYZ
    dof rx ry rz
    limits (-20.0 45.0)
           (-30.0 30.0)
           (-30.0 30.0)
  end
  begin
     id 17 
     name lclavicle
     direction 0.939609 0.311019 0.142835  
     length 3.70647  
     axis 0 0 0   XYZ
    dof ry rz
    limits (-20.0 10.0)
           (0.0 20.0)
  end
  begin
     id 18 
     name lhumerus
     direction 1 -4.48963e-011 -1.59838e-027   
     length 4.59207   
     axis 180 -30 -90   XYZ
    dof rx ry rz
    limits (-60.0 90.0)
           (-90.0 90.0)
           (-90.0 90.0)
  end
  begin
     id 19
     name lradius
     direction 1 -4.48957e-011 -1.3483e-026   
     length 2.98109   
     axis 180 -30 -90   XYZ
    dof rx
    limits (-10.0 170.0)
  end
  begin
     id 20
     name lwrist
     direction 1 -4.48954e-011 -3.11579e-026   
     length 1.49055   
     axis 2.00652e-014 90 90   XYZ
    dof ry
    limits (-180.0 0.0)
 end
  begin
     id 21 
     name lhand
     direction 1 -4.4911e-011 -6.23158e-026   
     length 0.480203   
     axis 3.97628e-014 90 90   XYZ
    dof rx rz
    limits (-90.0 90.0)
           (-45.0 45.0)
  end
  begin
     id 22 
     name lfingers
     direction 1 -4.48893e-011 -1.24632e-025   
     length 0.387152   
     axis 7.95256e-014 90 90   XYZ
    dof rx
    limits (0.0 90.0)
  end
  begin
     id 23
     name lthumb
     direction 0.707107 -6.35013e-011 0.707107   
     length 0.555875   
     axis -90 45 2.85299e-015   XYZ
    dof rx rz
    limits (-45.0 45.0)
           (-45.0 45.0)
  end
  begin
     id 24 
     name rclavicle
     direction -0.950396 0.30392 0.0661859   
     length 3.70894  
     axis 0 0 0   XYZ 
    dof ry rz
    limits (-10.0 20.0)
           (-20.0 0.0)
  end
  begin
     id 25 
     name rhumerus
     direction -1 -4.48957e-011 -2.96677e-027  
     length 4.76508   
     axis 180 30 90   XYZ
    dof rx ry rz
    limits (-90.0 60.0)
           (-90.0 90.0)
           (-90.0 90.0)
  end
  begin
     id 26 
     name rradius
     direction -1 -4.48974e-011 -1.44501e-026   
     length 2.78902   
     axis 180 30 90   XYZ
    dof rx
    limits (-10.0 170.0)
  end
  begin
     id 27 
     name rwrist
     direction -1 -4.48978e-011 -3.11579e-026   
     length 1.39451   
     axis 2.00652e-014 -90 -90   XYZ
    dof ry
    limits (-180.0 0.0)
  end
  begin
     id 28
     name rhand
     direction -1 -4.48956e-011 -6.23158e-026   
     length 0.721303   
     axis 3.97628e-014 -90 -90   XYZ
    dof rx rz
    limits (-90.0 90.0)
           (-45.0 45.0)
  end
  begin
     id 29
     name rfingers
     direction -1 -4.4899e-011 -1.24632e-025   
     length 0.581533   
     axis 7.95256e-014 -90 -90   XYZ
    dof rx
    limits (0.0 90.0)
  end
  begin
     id 30
     name rthumb
     direction -0.707107 -6.34911e-011 0.707107   
     length 0.834968   
     axis -90 -45 -2.85299e-015   XYZ
    dof rx rz
    limits (-45.0 45.0)
           (-45.0 45.0)
  end
:hierarchy
  begin
    root lhipjoint rhipjoint lowerback
    lhipjoint lfemur
    lfemur ltibia
    ltibia lfoot
    lfoot ltoes
    rhipjoint rfemur
    rfemur rtibia
    rtibia rfoot
    rfoot rtoes
    lowerback upperback
    upperback thorax
    thorax lowerneck lclavicle rclavicle
    lowerneck upperneck
    upperneck head
    lclavicle lhumerus
    lhumerus lradius
    lradius lwrist
    lwrist lhand lthumb
    lhand lfingers
    rclavicle rhumerus
    rhumerus rradius
    rradius rwrist
    rwrist rhand rthumb
    rhand rfingers
  end

#!OML:ASF I:\salsa\salsa 7_09\Patient 1\Session 1\dancerfemale.ASF
:FULLY-SPECIFIED
:DEGREES
793
root 12.422 15.7037 -3.03476 -737.513 298.598 1100.57
lowerback 9.55941 5.71803 -2.64418
upperback -4.51207 6.98432 -3.16809
thorax -10.115 3.39962 -3.19054
lowerneck 7.33191 -13.9922 -18.4111
upperneck -2.43794 -20.0422 14.3192
head 1.40069 -10.2201 6.76625
rclavicle -6.41826e-014 2.70347e-014
rhumerus -10.7642 -25.3483 -33.5414
rradius 57.0994
rwrist 0.804504
rhand 6.47492 44.9947
rfingers 7.12502
rthumb 31.7757 17.7441
lclavicle -6.41826e-014 2.70347e-014
lhumerus -41.1696 3.20159 90.7025
lradius 108.386
lwrist -17.127
lhand -9.24851 33.3692
lfingers 7.12502
lthumb 16.7072 62.6702
rfemur -35.1169 -18.5986 7.60617
rtibia 72.6362
rfoot -2.38169 -3.2369
rtoes -29.6202
lfemur -14.4551 -0.151779 -37.2495
ltibia 34.7044
lfoot -20.8199 -17.398
ltoes 16.5634
794
root 12.1982 15.7258 -2.96239 -736.65 301.346 1100.25
lowerback 9.57193 5.19638 -2.68917
upperback -4.59488 6.21113 -3.75642
thorax -10.1697 3.00315 -3.66197
lowerneck 8.11976 -14.758 -18.5929
upperneck -3.01781 -21.1964 15.0871
head 1.39817 -10.8332 6.98477
rclavicle 8.92046e-015 -1.39149e-015
rhumerus -14.493 -24.9412 -29.551
rradius 57.3491
rwrist -3.15208
rhand 7.41535 46.1216
rfingers 7.12502
rthumb 32.671 19.0525
lclavicle 8.92046e-015 -1.39149e-015
lhumerus -39.69 2.89335 91.0069
lradius 108.415
lwrist -17.3511
lhand -9.521 33.3395
lfingers 7.12502
lthumb 16.4449 62.6625
rfemur -36.8425 -19.3305 7.05583
rtibia 70.3826
rfoot -3.46502 -2.26972
rtoes -31.3694
lfemur -13.2173 0.513302 -37.6381
ltibia 33.6698
lfoot -19.8753 -20.5015
ltoes 17.7392
795
root 11.9673 15.7386 -2.89764 -735.907 304.155 1100.25
lowerback 9.43805 4.63201 -3.00621
upperback -4.71911 5.33916 -4.3925
thorax -10.2273 2.57342 -4.01015
lowerneck 8.78927 -15.4982 -18.6903
upperneck -3.34482 -22.309 15.7962
head 1.4769 -11.4278 7.15182
rclavicle 5.63803e-014 2.16675e-014
rhumerus -18.3029 -24.4162 -25.8912
rradius 57.7388
rwrist -7.14365
rhand 7.15875 47.3455
rfingers 7.12502
rthumb 32.4268 20.2261
lclavicle 5.63803e-014 2.16675e-014
lhumerus -38.5478 2.6148 91.2586
lradius 108.598
lwrist -17.5545
lhand -9.8614 33.2301
lfingers 7.12502
lthumb 16.1171 62.5799
rfemur -38.3304 -19.4788 6.365
rtibia 67.5064
rfoot -4.65582 -2.40902
rtoes -33.2344
lfemur -12.1102 1.1099 -38.1
ltibia 32.5464
lfoot -18.7412 -23.4546
ltoes 19.0318
796
root 11.7262 15.7414 -2.83365 -735.111 306.889 1100.38
lowerback 8.98878 3.98272 -3.49138
upperback -4.82881 4.35524 -4.96437
thorax -10.1163 2.10579 -4.14967
lowerneck 9.48594 -16.1011 -19.0665
upperneck -3.70532 -23.2741 16.7616
head 1.59105 -11.9578 7.43605
rclavicle -8.35144e-014 3.08116e-015
rhumerus -21.4635 -23.9671 -22.6795
rradius 57.5976
rwrist -10.0128
rhand 5.76237 48.6787
rfingers 7.12502
rthumb 31.0969 21.2957
lclavicle -8.35144e-014 3.08116e-015
lhumerus -37.6884 2.55948 91.5418
lradius 108.98
lwrist -17.6269
lhand -10.4117 33.4007
lfingers 7.12502
lthumb 15.5872 62.7926
rfemur -39.609 -19.5767 5.60805
rtibia 64.2453
rfoot -5.97411 -3.82322
rtoes -32.5912
lfemur -11.1322 1.66895 -38.5409
ltibia 31.4083
lfoot -17.7815 -26.1768
ltoes 19.2154
797
root 11.4736 15.7558 -2.76756 -734.076 309.525 1100.31
lowerback 8.34466 3.24946 -3.97202
upperback -4.96102 3.29273 -5.38533
thorax -9.92894 1.60599 -4.111
lowerneck 10.2906 -16.5525 -19.6597
upperneck -4.15634 -24.08 17.914
head 1.69877 -12.4204 7.82405
rclavicle 5.60309e-014 2.83517e-014
rhumerus -24.1969 -24.1724 -19.854
rradius 57.4364
rwrist -11.5458
rhand 5.30283 49.0792
rfingers 7.12502
rthumb 30.6588 21.6133
lclavicle 5.60309e-014 2.83517e-014
lhumerus -37.1354 2.65933 91.8807
lradius 109.478
lwrist -17.4075
lhand -10.7953 33.4647
lfingers 7.12502
lthumb 15.2177 62.885
rfemur -40.6121 -20.2558 5.08016
rtibia 60.7417
rfoot -7.61119 -5.50062
rtoes -32.8611
lfemur -10.1636 1.89681 -38.7383
ltibia 30.2732
lfoot -17.0163 -28.4605
ltoes 19.0368
798
root 11.2103 15.7664 -2.70533 -732.969 312.019 1100.22
lowerback 7.61089 2.48305 -4.58996
upperback -5.15218 2.19245 -5.67188
thorax -9.76351 1.10008 -3.85775
lowerneck 11.068 -16.8999 -20.0719
upperneck -4.59762 -24.7201 18.8075
head 1.74019 -12.7973 8.13449
rclavicle 7.5007e-014 -7.70291e-016
rhumerus -27.1748 -25.2933 -17.1756
rradius 58.0925
rwrist -11.7018
rhand 6.68645 48.6793
rfingers 7.12502
rthumb 31.9772 21.4688
lclavicle 7.5007e-014 -7.70291e-016
lhumerus -36.8842 2.80363 92.2089
lradius 109.957
lwrist -16.9365
lhand -11.0402 33.3128
lfingers 7.12502
lthumb 14.9818 62.7509
rfemur -41.4948 -20.9658 4.74785
rtibia 57.3208
rfoot -8.24626 -7.72766
rtoes -35.4977
lfemur -9.19828 1.86435 -38.7313
ltibia 29.0939
lfoot -16.1299 -30.3117
ltoes 20.3715
799
root 10.9379 15.772 -2.6462 -732.115 314.222 1100.42
lowerback 6.80157 1.72088 -5.54119
upperback -5.34824 1.08689 -5.84251
thorax -9.5572 0.615943 -3.30726
lowerneck 11.7304 -17.1325 -20.4384
upperneck -4.9446 -25.1841 19.4253
head 1.75717 -13.075 8.36871
rclavicle 2.47176e-014 -1.21259e-014
rhumerus -29.8526 -25.8469 -14.5563
rradius 58.6756
rwrist -11.443
rhand 7.92871 48.5983
rfingers 7.12502
rthumb 33.1592 21.6318
lclavicle 2.47176e-014 -1.21259e-014
lhumerus -36.7656 2.99086 92.5436
lradius 110.467
lwrist -16.2711
lhand -11.2867 33.6235
lfingers 7.12502
lthumb 14.7443 63.0791
rfemur -42.4244 -22.1737 4.61805
rtibia 54.2494
rfoot -9.01516 -10.2162
rtoes -33.6241
lfemur -8.16298 1.92083 -38.7397
ltibia 27.7721
lfoot -15.0609 -31.8497
ltoes 21.9427
800
root 10.6601 15.7745 -2.58944 -731.686 316.103 1100.97
lowerback 6.11218 0.99565 -6.75471
upperback -5.51267 0.0124643 -5.97947
thorax -9.36237 0.162348 -2.60447
lowerneck 12.3573 -17.2275 -20.7848
upperneck -5.28162 -25.4533 19.9506
head 1.73378 -13.2528 8.59888
rclavicle -5.56473e-014 -6.95746e-015
rhumerus -31.9176 -25.5202 -12.131
rradius 58.5836
rwrist -11.0281
rhand 7.82198 49.2088
rfingers 7.12502
rthumb 33.0577 22.2208
lclavicle -5.56473e-014 -6.95746e-015
lhumerus -36.7503 2.98515 92.718
lradius 111.036
lwrist -15.3996
lhand -11.4473 34.069
lfingers 7.12502
lthumb 14.5896 63.5358
rfemur -43.3505 -23.4532 4.50677
rtibia 51.8257
rfoot -9.82629 -12.9974
rtoes -30.7666
lfemur -7.01503 2.09392 -38.8611
ltibia 26.4593
lfoot -14.1221 -33.1097
ltoes 22.3832
801
root 10.3797 15.7725 -2.53711 -731.672 317.692 1101.74
lowerback 5.66761 0.29285 -8.09442
upperback -5.64371 -1.05465 -6.12234
thorax -9.24031 -0.281294 -1.86449
lowerneck 12.9084 -17.1377 -21.1646
upperneck -5.52776 -25.4782 20.5138
head 1.71294 -13.3098 8.86799
rclavicle 2.85598e-014 -6.97237e-014
rhumerus -33.6318 -24.8805 -10.1299
rradius 58.3983
rwrist -10.7201
rhand 6.89962 49.9716
rfingers 7.12502
rthumb 32.1801 22.8019
lclavicle 2.85598e-014 -6.97237e-014
lhumerus -36.7997 2.77204 92.606
lradius 111.522
lwrist -14.5365
lhand -11.5422 34.1793
lfingers 7.12502
lthumb 14.4981 63.6527
rfemur -44.2607 -24.9712 4.62771
rtibia 50.1373
rfoot -10.5885 -15.8286
rtoes -27.2884
lfemur -5.70951 2.18087 -39.0942
ltibia 25.2667
lfoot -13.6152 -33.797
ltoes 22.1337
802
root 10.0961 15.7552 -2.48725 -731.836 318.948 1102.43
lowerback 5.41945 -0.409434 -9.25504
upperback -5.76581 -2.11224 -6.21984
thorax -9.18664 -0.728516 -1.19344
lowerneck 13.3345 -17.0848 -21.2916
upperneck -5.62345 -25.4982 20.5882
head 1.65005 -13.3413 8.95359
rclavicle 4.0872e-014 2.76311e-014
rhumerus -35.0767 -23.9261 -8.63072
rradius 58.5572
rwrist -11.4658
rhand 5.95465 50.2587
rfingers 7.12502
rthumb 31.2801 22.911
lclavicle 4.0872e-014 2.76311e-014
lhumerus -36.8267 2.46656 92.2632
lradius 111.935
lwrist -13.8676
lhand -11.5942 34.089
lfingers 7.12502
lthumb 14.4481 63.566
rfemur -45.184 -26.763 5.42525
rtibia 49.1664
rfoot -10.1503 -20.0425
rtoes -23.7983
lfemur -4.34094 2.19147 -39.2364
ltibia 24.3533
lfoot -13.525 -33.8517
ltoes 21.6851
803
root 9.80853 15.7291 -2.43785 -731.807 319.79 1102.7
lowerback 5.25597 -1.07918 -9.92335
upperback -5.98096 -3.08978 -6.25309
thorax -9.26768 -1.15919 -0.745863
lowerneck 13.8784 -17.3843 -20.4984
upperneck -5.85849 -25.8278 19.518
head 1.30318 -13.4883 8.60345
rclavicle 3.59552e-014 7.92157e-014
rhumerus -36.2843 -23.203 -7.40226
rradius 58.7607
rwrist -12.8103
rhand 5.9701 50.549
rfingers 7.12502
rthumb 31.2948 23.2041
lclavicle 3.59552e-014 7.92157e-014
lhumerus -36.9221 1.90467 91.7002
lradius 112.3
lwrist -13.5597
lhand -11.7126 33.8617
lfingers 7.12502
lthumb 14.3339 63.3468
rfemur -46.2976 -28.4523 6.99043
rtibia 48.8193
rfoot -9.95277 -24.6529
rtoes -17.4013
lfemur -3.08376 1.08532 -39.1579
ltibia 23.8127
lfoot -14.3017 -32.4498
ltoes 20.5177
804
root 9.51764 15.7031 -2.38929 -731.453 320.259 1102.58
lowerback 4.9595 -1.74724 -10.097
upperback -6.21966 -3.98875 -6.20237
thorax -9.29536 -1.58093 -0.497708
lowerneck 14.076 -17.4377 -20.282
upperneck -5.7874 -25.9027 19.0144
head 1.20566 -13.5132 8.45292
rclavicle -4.36457e-014 2.82274e-014
rhumerus -37.2138 -22.5522 -6.46554
rradius 58.8352
rwrist -14.3254
rhand 6.42783 51.1214
rfingers 7.12502
rthumb 31.7309 23.8618
lclavicle -4.36457e-014 2.82274e-014
lhumerus -36.7877 1.14809 91.0355
lradius 112.568
lwrist -13.4467
lhand -11.9964 33.8345
lfingers 7.12502
lthumb 14.0604 63.3389
rfemur -47.5208 -30.1156 9.37048
rtibia 48.9662
rfoot -10.2306 -27.4505
rtoes -3.08394
lfemur -2.20037 -0.103877 -38.7276
ltibia 23.7385
lfoot -15.3409 -30.8629
ltoes 18.8465
805
root 9.22643 15.688 -2.34292 -730.919 320.369 1102.27
lowerback 4.41811 -2.38232 -9.9426
upperback -6.38215 -4.75756 -6.09162
thorax -9.10504 -1.96906 -0.396468
lowerneck 13.8701 -17.5716 -19.9214
upperneck -5.5971 -26.0002 18.3175
head 1.16217 -13.5257 8.18028
rclavicle -1.28651e-014 1.98785e-016
rhumerus -38.307 -21.0841 -5.87027
rradius 59.3266
rwrist -16.066
rhand 6.31602 51.4755
rfingers 7.12502
rthumb 31.6244 24.195
lclavicle -1.28651e-014 1.98785e-016
lhumerus -36.2578 0.30706 90.3222
lradius 112.877
lwrist -13.0235
lhand -12.0758 34.006
lfingers 7.12502
lthumb 13.984 63.5157
rfemur -48.7591 -31.496 12.2281
rtibia 49.439
rfoot -13.5216 -31.0147
rtoes 8.46645
lfemur -1.66002 -1.14437 -38.0677
ltibia 24.0319
lfoot -16.3036 -29.2852
ltoes 16.8287
806
root 8.93446 15.686 -2.29911 -730.332 320.038 1101.83
lowerback 3.75894 -2.89546 -9.5234
upperback -6.61278 -5.33839 -6.00486
thorax -8.95503 -2.28493 -0.501888
lowerneck 14.0764 -17.547 -19.7886
upperneck -5.46522 -25.9954 18.041
head 1.11131 -13.5228 8.11012
rclavicle -7.89796e-014 -1.03368e-014
rhumerus -39.7203 -19.1277 -5.446
rradius 59.9257
rwrist -17.3205
rhand 5.8907 51.908
rfingers 7.12502
rthumb 31.2192 24.5485
lclavicle -7.89796e-014 -1.03368e-014
lhumerus -35.8155 -0.682172 89.4834
lradius 113.321
lwrist -12.3583
lhand -11.8238 33.9499
lfingers 7.12502
lthumb 14.2268 63.4426
rfemur -49.3028 -31.6855 14.4893
rtibia 50.0003
rfoot -16.0618 -32.5741
rtoes 13.6559
lfemur -1.39317 -2.03313 -37.2024
ltibia 24.6791
lfoot -16.9846 -27.6648
ltoes 14.5925
807
root 8.6372 15.7007 -2.25346 -729.911 319.332 1101.31
lowerback 3.20407 -3.35196 -8.87082
upperback -6.8981 -5.85855 -5.9438
thorax -8.96095 -2.58417 -0.768492
lowerneck 14.4634 -17.3773 -19.9115
upperneck -5.1772 -25.8901 17.9619
head 1.12201 -13.4859 8.1431
rclavicle -1.8313e-014 3.45885e-014
rhumerus -41.0561 -16.8662 -5.3926
rradius 60.2612
rwrist -18.5295
rhand 5.18196 52.3371
rfingers 7.12502
rthumb 30.5435 24.8497
lclavicle -1.8313e-014 3.45885e-014
lhumerus -35.6395 -1.68791 88.5207
lradius 113.848
lwrist -11.7046
lhand -11.7619 33.9966
lfingers 7.12502
lthumb 14.2864 63.4851
rfemur -48.6735 -30.6555 15.5123
rtibia 50.454
rfoot -18.4735 -32.7583
rtoes 16.3598
lfemur -1.19673 -2.92874 -36.2535
ltibia 25.8078
lfoot -17.438 -25.7619
ltoes 11.3925
